<svg xmlns="http://www.w3.org/2000/svg" width="512" height="512" viewBox="0 0 512 512" version="1.1">
	<path d="M 182.966 69.445 C 151.905 73.892, 112.212 83.392, 77 94.806 C 65.175 98.639, 52.800 102.076, 49.500 102.444 C 40.565 103.440, 37.500 104.705, 33.622 108.996 C 22.602 121.195, 32.640 140.576, 48.864 138.424 L 53.771 137.773 55.961 143.627 C 58.949 151.611, 66.614 182.769, 73.889 216.500 C 83.159 259.480, 104.759 353.831, 106.737 359.982 C 108.906 366.726, 111.996 369.019, 123.745 372.603 C 128.353 374.009, 132.355 375.761, 132.637 376.497 C 132.920 377.233, 131.526 379.335, 129.541 381.168 C 126.139 384.308, 125.867 385.028, 124.814 393.676 C 123.929 400.940, 123.965 403.502, 124.989 405.973 C 128.270 413.895, 142.354 414.017, 146.418 406.159 C 148.347 402.428, 148.596 399.675, 147.651 392.498 C 146.787 385.934, 147.975 381, 150.419 381 C 151.226 381, 167.325 385.899, 186.193 391.886 C 205.062 397.874, 231.525 406.227, 245 410.450 C 258.475 414.673, 271.637 418.811, 274.250 419.645 C 276.863 420.478, 279 421.769, 279 422.512 C 279 423.255, 276.975 428.024, 274.500 433.109 C 269.101 444.202, 268.868 447.140, 273.079 451.074 C 280.252 457.775, 294.130 457.639, 302.444 450.786 C 306.808 447.188, 306.944 444.860, 303.479 433.051 C 302.116 428.405, 301 423.854, 301 422.938 C 301 421.160, 351.800 386.997, 355.553 386.250 C 358.287 385.707, 359.763 389.074, 361.074 398.850 C 362.242 407.561, 364.271 411.073, 368.905 412.402 C 373.176 413.627, 378.348 411.161, 380.587 406.833 C 381.935 404.224, 382.141 401.999, 381.639 395.465 C 380.822 384.842, 379.567 381.513, 375.405 378.941 C 373.526 377.780, 372.217 376.458, 372.498 376.004 C 372.778 375.550, 376.943 372.610, 381.754 369.469 C 390.936 363.475, 395.540 359.666, 397.117 356.758 C 397.637 355.800, 398.918 348.375, 399.965 340.258 C 404.146 307.833, 420.066 190.260, 420.760 186.686 C 421.644 182.131, 420.709 182.716, 445.945 170.924 C 466.230 161.446, 469.300 159.606, 472.222 155.177 C 474.448 151.800, 474.471 148.606, 472.294 144.920 C 467.919 137.513, 457.309 137.144, 441.721 143.857 L 431.943 148.068 406.221 145.063 C 392.075 143.410, 371.950 141.158, 361.500 140.059 C 351.050 138.960, 319.325 135.595, 291 132.582 C 262.675 129.568, 233.935 126.673, 227.133 126.149 C 219.049 125.526, 214.288 124.717, 213.384 123.813 C 212.577 123.006, 211.372 117.452, 210.488 110.465 C 209.656 103.884, 208.754 97.516, 208.484 96.314 C 208.081 94.515, 208.894 93.638, 213.076 91.362 C 218.291 88.524, 221 84.894, 221 80.746 C 221 78.052, 216.185 73.074, 211.096 70.507 C 206.516 68.196, 194.782 67.753, 182.966 69.445 M 160.500 104.451 C 142.350 109.041, 114.031 116.209, 97.569 120.380 C 81.106 124.551, 67.223 128.377, 66.717 128.883 C 66.212 129.388, 66.097 131.166, 66.463 132.832 C 67.780 138.827, 68.180 138.822, 91.792 132.530 C 103.731 129.349, 132.849 121.713, 156.498 115.562 C 191.117 106.558, 199.561 104.040, 199.831 102.640 C 200.293 100.238, 197.324 95.989, 195.227 96.053 C 194.277 96.081, 178.650 99.861, 160.500 104.451 M 192.942 113.948 C 187.055 115.735, 185.775 116.981, 186.382 120.336 C 186.697 122.076, 188.577 137.899, 190.560 155.499 C 192.542 173.098, 194.276 187.609, 194.413 187.746 C 194.550 187.883, 197.438 188.285, 200.831 188.640 L 207 189.285 206.995 186.392 C 206.993 184.802, 206.108 172.383, 205.028 158.795 C 201.481 114.155, 201.288 112.947, 197.711 113.086 C 196.495 113.133, 194.349 113.521, 192.942 113.948 M 170.508 121.357 C 168.171 122.061, 166.379 123.271, 166.185 124.276 C 165.909 125.712, 173.885 184.015, 174.457 184.740 C 174.561 184.872, 177.426 185.360, 180.823 185.824 C 186.151 186.553, 187 186.451, 187 185.083 C 187 182.337, 180.044 125.023, 179.399 122.452 C 178.702 119.679, 176.839 119.449, 170.508 121.357 M 149.230 126.886 C 146.332 127.887, 143.695 128.972, 143.370 129.297 C 142.417 130.249, 150.924 181.335, 152.163 182.101 C 153.709 183.056, 166.017 184.316, 166.741 183.593 C 167.419 182.914, 160.297 133.073, 158.832 128.250 C 157.687 124.479, 156.631 124.329, 149.230 126.886 M 128.197 132.594 C 121.723 134.294, 118.999 135.684, 119.004 137.285 C 119.009 138.860, 125.756 174.657, 126.475 176.922 C 126.895 178.245, 128.953 178.904, 135.262 179.738 C 139.793 180.337, 143.570 180.754, 143.656 180.664 C 144.369 179.917, 135.854 133.440, 134.825 132.462 C 133.759 131.448, 132.464 131.474, 128.197 132.594 M 216.077 137.931 C 214.581 138.878, 214.543 138.203, 218.388 179.430 C 219.638 192.843, 218.916 191.920, 229.250 193.319 L 234 193.962 233.979 189.231 C 233.967 186.629, 233.299 175.050, 232.494 163.500 C 231.689 151.950, 231.024 141.970, 231.015 141.321 C 230.981 138.643, 227.799 137, 222.679 137.015 C 219.830 137.024, 216.860 137.436, 216.077 137.931 M 104 139.131 C 97.556 140.880, 95 142.230, 95 143.885 C 95 146.848, 100.960 173.360, 101.819 174.219 C 102.634 175.034, 118.187 177.146, 118.807 176.526 C 119.232 176.102, 113.189 145.276, 111.892 141.250 C 110.773 137.776, 109.877 137.535, 104 139.131 M 239.517 140.972 C 238.482 142.648, 240.216 172.939, 241.401 173.867 C 242.006 174.340, 245.088 175.018, 248.250 175.372 L 254 176.017 254 159.943 C 254 150.775, 253.555 143.037, 252.965 141.934 C 252.121 140.357, 250.839 140, 246.024 140 C 242.776 140, 239.848 140.437, 239.517 140.972 M 260.518 141.815 C 259.523 142.810, 259.981 175.870, 260.998 176.499 C 261.548 176.838, 265.148 177.380, 268.998 177.703 L 276 178.290 276 160.664 C 276 143.189, 275.981 143.034, 273.750 142.574 C 269.887 141.778, 261.061 141.272, 260.518 141.815 M 283.591 145.137 C 283.353 145.886, 282.939 153.839, 282.671 162.810 C 282.105 181.757, 281.202 180.286, 294.146 181.499 L 301.714 182.208 302.446 164.906 C 303.296 144.829, 303.371 145.009, 294.059 144.986 C 291.001 144.979, 287.493 144.703, 286.262 144.373 C 284.826 143.988, 283.869 144.261, 283.591 145.137 M 78 146.324 C 74.765 147.443, 74.506 147.836, 74.581 151.517 C 74.625 153.708, 75.449 159.012, 76.411 163.305 C 77.890 169.904, 78.545 171.257, 80.646 172.055 C 82.987 172.945, 94 173.423, 94 172.634 C 94 171.380, 88.829 149.680, 88.028 147.573 C 86.917 144.652, 83.914 144.278, 78 146.324 M 310.435 149.310 C 309.630 151.405, 308.299 182.423, 308.977 183.246 C 309.316 183.657, 313.672 184.282, 318.657 184.636 L 327.720 185.280 328.373 175.890 C 328.732 170.725, 329.297 162.796, 329.630 158.270 L 330.233 150.039 327.552 149.020 C 323.533 147.492, 311.051 147.703, 310.435 149.310 M 337.576 150.877 C 337.217 151.459, 336.404 159.603, 335.771 168.977 C 334.425 188.893, 334.487 189.087, 341.584 187.189 C 344.098 186.516, 348.258 184.961, 350.828 183.733 L 355.500 181.500 356.664 172 C 357.305 166.775, 357.867 160.173, 357.914 157.329 C 357.995 152.456, 357.842 152.129, 355.250 151.632 C 348.333 150.306, 338.196 149.873, 337.576 150.877 M 366.840 154.099 C 365.817 154.731, 363.120 170.154, 363.035 175.858 C 362.990 178.880, 364.379 178.556, 377.253 172.539 C 387.582 167.713, 387.818 167.435, 388.273 159.569 C 388.490 155.820, 388.339 155.606, 385 154.920 C 379.714 153.835, 368.116 153.310, 366.840 154.099 M 395.607 157.582 C 394.566 160.295, 394.942 164.004, 396.250 163.923 C 396.938 163.881, 400.200 162.595, 403.500 161.064 L 409.500 158.282 405.500 157.146 C 399.903 155.558, 396.323 155.715, 395.607 157.582 M 241.725 183.609 C 240.735 184.598, 240.835 192.192, 241.859 193.806 C 242.315 194.524, 245.166 195.368, 248.196 195.681 L 253.705 196.249 254.369 192.091 C 255.261 186.517, 253.817 184.004, 249.715 183.986 C 247.947 183.979, 245.589 183.728, 244.475 183.428 C 243.361 183.129, 242.123 183.210, 241.725 183.609 M 85 185.951 C 85 189.002, 87.123 198.404, 88.032 199.375 C 88.482 199.857, 90.459 199.949, 92.425 199.580 C 95.644 198.976, 96 198.589, 96 195.698 C 96 191.415, 94.339 185.833, 92.768 184.836 C 92.071 184.393, 90.037 184.024, 88.250 184.015 C 85.689 184.003, 85 184.413, 85 185.951 M 260.825 187.158 C 260.572 187.896, 260.431 189.400, 260.512 190.500 C 261.032 197.623, 260.303 197.074, 271.250 198.576 L 276 199.227 276 193.693 C 276 187.531, 276.512 187.898, 265.892 186.446 C 262.491 185.981, 261.164 186.167, 260.825 187.158 M 101 189.375 C 101 193.059, 102.392 197, 103.692 197 C 104.597 197, 104.941 196.348, 104.615 195.250 C 104.329 194.287, 103.800 192.262, 103.439 190.750 C 102.764 187.920, 101 186.926, 101 189.375 M 108.459 191.652 C 109.307 196.187, 109.471 196.417, 111.346 195.698 C 113.455 194.888, 111.987 188.621, 109.581 188.158 C 107.957 187.845, 107.825 188.255, 108.459 191.652 M 114 191.934 C 114 194.193, 114.460 194.996, 115.750 194.985 C 120.689 194.941, 121.578 189.742, 116.741 189.184 C 114.280 188.899, 114 189.180, 114 191.934 M 282.481 189.852 C 282.217 190.117, 282 192.460, 282 195.058 C 282 200.503, 282.040 200.525, 293.835 201.621 L 301 202.287 301 197.112 C 301 193.866, 300.534 191.778, 299.750 191.511 C 297.528 190.753, 282.978 189.355, 282.481 189.852 M 406.975 191.565 C 405.731 194.838, 405.709 201, 406.941 201 C 408.373 201, 408.819 199.846, 409.569 194.193 C 410.323 188.510, 408.745 186.911, 406.975 191.565 M 307.564 196.420 C 306.850 201.183, 307.320 203, 309.265 203 C 310.998 203, 326 195.792, 326 194.959 C 326 194.560, 322.962 193.921, 319.250 193.541 C 315.538 193.160, 311.544 192.623, 310.375 192.347 C 308.511 191.907, 308.166 192.407, 307.564 196.420 M 394 196.301 C 392.013 197.296, 391.387 198.531, 390.949 202.324 C 390.413 206.961, 390.469 207.086, 392.926 206.797 C 395.072 206.545, 395.573 205.818, 396.235 202 C 397.352 195.557, 397.046 194.775, 394 196.301 M 132.750 197.689 C 131.787 197.941, 131.018 198.451, 131.039 198.823 C 131.166 201.004, 134.852 217.186, 135.331 217.664 C 135.648 217.981, 137.097 217.942, 138.551 217.577 C 141.183 216.916, 141.192 216.883, 140.545 209.707 C 139.343 196.372, 139.118 196.025, 132.750 197.689 M 147 202.792 C 147 211.155, 147.914 214, 150.600 214 C 153.165 214, 153.164 213.484, 150.593 203.077 C 149.022 196.721, 147 196.560, 147 202.792 M 157.409 204.155 C 158.299 209.720, 158.370 209.787, 162.715 209.087 C 166.100 208.541, 166.533 208.135, 166.813 205.238 C 167.076 202.522, 166.702 201.837, 164.498 200.999 C 163.053 200.450, 160.717 200, 159.307 200 C 156.861 200, 156.775 200.190, 157.409 204.155 M 115.352 203.766 C 114.496 204.314, 114.567 206.599, 115.634 212.769 C 117.481 223.451, 118.507 226.126, 120.468 225.374 C 122.339 224.656, 122.320 223.813, 120.184 212.581 C 118.524 203.848, 117.667 202.286, 115.352 203.766 M 174.150 203.950 C 174.370 204.610, 174.876 205.116, 175.275 205.075 C 176.471 204.951, 176.239 203.580, 174.950 203.150 C 174.290 202.930, 173.930 203.290, 174.150 203.950 M 379.850 204.784 C 378.724 205.005, 378.057 206.442, 377.749 209.304 C 377.216 214.270, 378.342 216.086, 380.572 213.857 C 382.757 211.672, 382.173 204.328, 379.850 204.784 M 105 207.935 C 105 209.611, 106.907 219.816, 108.516 226.750 C 109.036 228.989, 112 229.982, 112 227.917 C 112 227.321, 111.148 223.383, 110.107 219.167 C 109.066 214.950, 107.932 210.262, 107.588 208.750 C 106.874 205.612, 105 205.021, 105 207.935 M 91.505 207.992 C 91.168 208.538, 91.902 214.427, 93.137 221.079 L 95.383 233.173 98.369 232.576 C 100.011 232.248, 101.537 231.797, 101.760 231.573 C 102.172 231.161, 99.650 217.595, 97.888 210.750 C 97.110 207.725, 96.458 207, 94.520 207 C 93.199 207, 91.842 207.446, 91.505 207.992 M 126.079 208.583 C 126.127 209.748, 126.364 209.985, 126.683 209.188 C 126.972 208.466, 126.936 207.603, 126.604 207.271 C 126.272 206.939, 126.036 207.529, 126.079 208.583 M 199.032 208.275 C 199.056 209.205, 201.748 234.474, 201.959 235.750 C 201.981 235.887, 203.575 236, 205.500 236 L 209 236 208.992 231.250 C 208.982 224.470, 207.189 209.774, 206.274 208.956 C 204.695 207.545, 198.999 207.010, 199.032 208.275 M 367.750 210.080 C 365.475 211.405, 365.207 220, 367.441 220 C 369.388 220, 369.907 218.960, 370.644 213.583 C 371.287 208.886, 370.804 208.301, 367.750 210.080 M 404.546 211.250 C 404.332 211.938, 403.428 218.800, 402.538 226.500 C 401.648 234.200, 400.666 241.791, 400.355 243.368 C 399.935 245.498, 400.136 246.121, 401.137 245.788 C 402.376 245.375, 406.714 220.617, 406.926 212.750 C 407 209.992, 405.279 208.907, 404.546 211.250 M 127.079 212.583 C 127.127 213.748, 127.364 213.985, 127.683 213.188 C 127.972 212.466, 127.936 211.603, 127.604 211.271 C 127.272 210.939, 127.036 211.529, 127.079 212.583 M 186.086 211.926 C 184.891 212.682, 184.859 214.158, 185.877 221.436 C 186.540 226.174, 187.338 230.718, 187.651 231.534 C 188.177 232.905, 192.656 234.714, 193.435 233.870 C 193.798 233.478, 191.482 217.066, 190.526 213.250 C 189.932 210.881, 188.440 210.436, 186.086 211.926 M 222.032 214.250 C 222.049 216.037, 222.685 222.149, 223.446 227.831 C 224.708 237.268, 225.433 240.054, 226.328 238.917 C 226.770 238.354, 225.330 218.573, 224.540 214.360 C 223.734 210.065, 221.990 209.988, 222.032 214.250 M 242.718 214.598 C 241.971 215.361, 242.567 231.995, 243.581 238.674 C 244.019 241.567, 244.506 241.943, 249.080 242.924 C 251.840 243.516, 254.344 244, 254.645 244 C 255.393 244, 254.654 216.318, 253.886 215.551 C 252.866 214.533, 243.558 213.739, 242.718 214.598 M 358.667 214.667 C 358.300 215.033, 358 217.096, 358 219.250 C 358 224.616, 360.400 223.695, 360.807 218.172 C 361.092 214.319, 360.304 213.029, 358.667 214.667 M 128.086 216 C 128.055 216.825, 128.467 218.175, 129 219 C 130.181 220.828, 130.181 219.249, 129 216.500 C 128.433 215.181, 128.122 215.011, 128.086 216 M 176.426 216.333 C 175.593 218.503, 177.632 230.050, 179.093 231.432 C 179.928 232.223, 180.039 230.425, 179.521 224.500 C 178.813 216.401, 177.614 213.237, 176.426 216.333 M 164.250 218.119 C 161.744 218.842, 161 219.608, 161 221.463 C 161 226.318, 162.724 228.858, 166.501 229.566 C 168.477 229.937, 170.289 230.044, 170.529 229.804 C 171.177 229.157, 168.893 216.985, 168.143 217.090 C 167.789 217.140, 166.037 217.603, 164.250 218.119 M 260.455 230.750 C 260.854 238.313, 261.252 244.570, 261.340 244.655 C 261.428 244.740, 262.353 244.965, 263.395 245.155 C 265.187 245.481, 265.278 244.767, 265.071 232.035 C 264.951 224.630, 264.634 218.217, 264.367 217.785 C 264.100 217.353, 262.948 217, 261.806 217 C 259.770 217, 259.744 217.266, 260.455 230.750 M 348.141 218.892 C 346.351 220.026, 345.379 228.498, 346.928 229.456 C 349.169 230.841, 351 227.882, 351 222.878 C 351 217.931, 350.580 217.346, 348.141 218.892 M 271.304 232.559 C 271.645 240.093, 272.053 246.372, 272.212 246.512 C 272.370 246.652, 273.975 247.082, 275.778 247.469 L 279.056 248.171 278.778 233.836 L 278.500 219.500 274.593 219.180 L 270.685 218.861 271.304 232.559 M 387.982 220.750 C 387.972 221.162, 387.305 225.775, 386.500 231 C 384.384 244.732, 384.468 246, 387.500 246 C 388.875 246, 390 245.583, 390 245.072 C 390 244.562, 390.416 240.850, 390.924 236.822 C 393.207 218.736, 393.240 220, 390.481 220 C 389.116 220, 387.992 220.338, 387.982 220.750 M 151.011 222.487 C 149.357 224.479, 150.451 227, 152.969 227 C 155.019 227, 155.507 225.486, 154.393 222.582 C 153.634 220.603, 152.598 220.574, 151.011 222.487 M 302.692 222.361 C 302.404 223.110, 301.846 229.396, 301.451 236.330 L 300.733 248.937 304.080 247.977 C 309.936 246.298, 310.858 244.539, 311.624 233.602 C 312.249 224.660, 312.137 223.574, 310.467 222.352 C 308.076 220.604, 303.364 220.610, 302.692 222.361 M 288.222 235.750 L 288.500 249.500 291.391 249.830 C 293.034 250.018, 294.647 249.586, 295.126 248.830 C 295.590 248.099, 295.976 241.762, 295.985 234.750 L 296 222 291.972 222 L 287.944 222 288.222 235.750 M 334.571 227.571 C 332.542 229.601, 332.443 236, 334.441 236 C 336.329 236, 336.795 235.137, 337.591 230.155 C 338.306 225.688, 337.308 224.835, 334.571 227.571 M 375.574 226.880 C 375.275 227.364, 374.732 231.639, 374.368 236.380 C 373.801 243.748, 373.928 245, 375.239 245 C 376.779 245, 377.029 243.981, 378.607 231.250 C 379.150 226.870, 378.998 226, 377.688 226 C 376.824 226, 375.873 226.396, 375.574 226.880 M 131 230.193 C 131 230.519, 131.726 234.322, 132.613 238.643 C 134.283 246.779, 135.492 250, 136.875 250 C 137.833 250, 133.215 231.921, 131.907 230.550 C 131.408 230.028, 131 229.867, 131 230.193 M 139.017 230.677 C 139.079 233.651, 143.160 246.588, 144.440 247.869 C 145.853 249.282, 145.991 249.244, 145.904 247.464 C 145.852 246.384, 145.064 242.130, 144.154 238.011 C 142.935 232.492, 142.040 230.435, 140.750 230.188 C 139.787 230.004, 139.008 230.224, 139.017 230.677 M 365.484 232.026 C 365.135 232.590, 364.596 235.515, 364.285 238.526 C 363.807 243.162, 363.971 244, 365.360 244 C 366.292 244, 367 243.197, 367 242.140 C 367 241.116, 367.286 238.191, 367.636 235.640 C 368.053 232.599, 367.901 231, 367.195 231 C 366.603 231, 365.833 231.462, 365.484 232.026 M 120.503 236.250 C 122.273 244.946, 123.108 247, 124.871 247 C 126.569 247, 126.585 246.624, 125.163 240 C 123.939 234.302, 123.304 233, 121.750 233 C 120.127 233, 119.940 233.487, 120.503 236.250 M 151.001 234.750 C 151.004 236.142, 153.953 252.276, 154.546 254.146 C 154.907 255.282, 156.077 256, 157.567 256 C 160.440 256, 160.385 256.563, 158.507 246.500 C 156.132 233.777, 156.222 234, 153.481 234 C 152.116 234, 151.001 234.338, 151.001 234.750 M 356.619 236.524 C 354.848 238.295, 354.694 239.039, 355.607 241.418 C 356.614 244.042, 357.870 243.210, 358.575 239.453 C 359.372 235.202, 358.799 234.344, 356.619 236.524 M 111 238.435 C 111 242.145, 112.771 246, 114.475 246 C 116.298 246, 116.294 246.052, 114.881 240.443 C 113.678 235.662, 111 234.277, 111 238.435 M 163.371 238.750 C 166.455 254.748, 165.909 253.745, 170.574 251.972 C 173.220 250.966, 173.265 250.809, 172.636 244.722 C 171.927 237.856, 170.457 236, 165.729 236 C 163.117 236, 162.892 236.262, 163.371 238.750 M 99.750 239.080 C 97.191 240.570, 97.613 242.686, 100.618 243.440 C 103.887 244.261, 104.407 243.756, 103.601 240.547 C 102.901 237.758, 102.369 237.555, 99.750 239.080 M 179.340 240.750 C 179.601 241.713, 180.090 243.738, 180.426 245.250 C 181.124 248.387, 183 248.981, 183 246.065 C 183 243.176, 181.202 239, 179.957 239 C 179.357 239, 179.079 239.787, 179.340 240.750 M 346.074 240.411 C 345.273 241.376, 345.235 242.027, 345.951 242.470 C 347.348 243.333, 349 242.233, 349 240.441 C 349 238.605, 347.585 238.590, 346.074 240.411 M 188.591 240.853 C 187.635 242.399, 190.453 245.147, 192.276 244.447 C 194.538 243.580, 194.460 242.317, 192.066 241.035 C 189.718 239.779, 189.269 239.755, 188.591 240.853 M 203.300 245.660 C 202.561 247.587, 204.757 264.292, 206.236 267.992 C 208.008 272.425, 208.319 268.236, 207.027 257.338 C 206.056 249.144, 206.055 246.639, 207.021 245.475 C 208.035 244.253, 207.876 244, 206.091 244 C 204.906 244, 203.651 244.747, 203.300 245.660 M 332.248 248.250 C 331.306 249.430, 327.969 274.442, 327.990 280.156 C 327.998 282.318, 328.372 282.715, 330 282.290 C 331.100 282.002, 332.037 281.707, 332.083 281.633 C 332.549 280.882, 335.679 248.308, 335.339 247.750 C 334.658 246.633, 333.372 246.841, 332.248 248.250 M 100.411 253.671 C 102.953 268.355, 105.251 279.788, 105.858 280.770 C 106.728 282.178, 111.024 281.217, 110.940 279.633 C 110.906 279.010, 109.661 272.200, 108.173 264.500 C 105.481 250.578, 105.450 250.498, 102.607 250.171 C 99.807 249.850, 99.762 249.922, 100.411 253.671 M 114.376 256.728 C 115.648 266.018, 117.147 273.619, 117.967 274.947 C 118.424 275.686, 119.476 276.031, 120.305 275.713 C 121.817 275.133, 121.563 273.287, 117.502 255.360 C 117.235 254.183, 116.276 252.936, 115.370 252.588 C 113.930 252.036, 113.805 252.558, 114.376 256.728 M 192.121 252.904 C 191.082 253.562, 190.907 255.102, 191.413 259.147 C 192.208 265.510, 192.735 266.491, 195.886 267.476 C 198.018 268.142, 198.213 267.970, 197.710 265.861 C 197.401 264.562, 196.838 260.913, 196.459 257.750 C 195.781 252.098, 194.917 251.133, 192.121 252.904 M 226.628 261 C 226.934 266.225, 227.549 271.152, 227.993 271.948 C 228.942 273.648, 228.128 261.315, 226.909 255.500 C 226.353 252.853, 226.258 254.714, 226.628 261 M 234.561 260.750 C 235.437 272.267, 236.269 276.256, 237.909 276.803 C 239.002 277.167, 239.134 275.753, 238.604 269.376 C 237.374 254.568, 236.894 252, 235.354 252 C 234.137 252, 234.006 253.446, 234.561 260.750 M 342.658 256.250 C 342.347 258.038, 341.789 263.212, 341.418 267.750 C 340.844 274.757, 340.971 276, 342.260 276 C 343.993 276, 344.592 273.338, 345.582 261.250 C 346.156 254.243, 346.029 253, 344.740 253 C 343.810 253, 343.004 254.259, 342.658 256.250 M 353.684 255.250 C 353.391 256.488, 352.834 260.595, 352.446 264.377 C 351.872 269.967, 351.995 271.168, 353.106 270.798 C 355.337 270.054, 357.618 253, 355.486 253 C 354.788 253, 353.977 254.012, 353.684 255.250 M 124.567 257.504 C 126.694 268.841, 127.587 271.489, 129.401 271.839 C 131.047 272.156, 131.177 271.757, 130.539 268.348 C 129.339 261.943, 126.580 254.658, 125.185 254.211 C 124.179 253.889, 124.033 254.661, 124.567 257.504 M 362.577 256.250 C 360.975 264.061, 360.933 266, 362.367 266 C 363.311 266, 364.057 264.504, 364.485 261.750 C 364.849 259.413, 365.369 256.712, 365.640 255.750 C 365.959 254.624, 365.583 254, 364.586 254 C 363.735 254, 362.830 255.012, 362.577 256.250 M 182.431 256.320 C 181.577 258.545, 183.232 265.244, 184.761 265.754 C 185.667 266.056, 185.823 264.909, 185.362 261.331 C 184.668 255.936, 183.406 253.779, 182.431 256.320 M 245.009 261.120 C 245.013 264.629, 245.298 269.840, 245.642 272.700 C 246.223 277.536, 246.485 277.943, 249.383 278.524 C 251.098 278.868, 253.287 279.371, 254.250 279.642 C 255.840 280.090, 255.999 279.145, 255.985 269.317 C 255.976 263.368, 255.582 257.888, 255.108 257.141 C 254.635 256.394, 252.167 255.548, 249.624 255.261 L 245 254.740 245.009 261.120 M 372 258.122 C 372 260.785, 372.221 261.061, 373.500 260 C 374.325 259.315, 375 257.910, 375 256.878 C 375 255.845, 374.325 255, 373.500 255 C 372.487 255, 372 256.014, 372 258.122 M 136.646 257.763 C 135.535 259.562, 137.476 267.500, 139.028 267.500 C 140.117 267.500, 140.437 266.471, 140.256 263.541 C 140.010 259.558, 137.762 255.959, 136.646 257.763 M 303.750 259.068 L 300 261.048 300 267.873 C 300 271.627, 299.706 278.172, 299.347 282.419 L 298.695 290.139 302.531 289.819 C 305.806 289.547, 306.480 289.076, 307.137 286.603 C 308.342 282.062, 309.409 256.994, 308.395 257.044 C 307.903 257.069, 305.813 257.979, 303.750 259.068 M 398.370 258.140 C 397.155 259.704, 392.601 290.935, 393.463 291.796 C 394.945 293.278, 396.010 289.289, 398.010 274.764 C 400.224 258.677, 400.289 255.671, 398.370 258.140 M 262.219 269.823 C 262.464 279.995, 262.722 281.518, 264.250 281.811 C 265.834 282.115, 266 281.062, 266 270.690 C 266 260.016, 265.861 259.197, 263.969 258.702 C 262.002 258.188, 261.947 258.539, 262.219 269.823 M 171.122 260.904 C 169.310 262.051, 170.576 264, 173.132 264 C 174.475 264, 175.039 263.444, 174.823 262.333 C 174.429 260.301, 172.968 259.737, 171.122 260.904 M 272 271.971 L 272 282.943 275.250 283.787 L 278.500 284.631 278.786 274.130 C 278.943 268.354, 278.844 263.037, 278.567 262.314 C 278.290 261.591, 276.699 261, 275.031 261 L 272 261 272 271.971 M 288.432 264.318 C 288.154 265.042, 288.055 270.330, 288.213 276.068 L 288.500 286.500 291.250 286.816 L 294 287.133 294 275.066 L 294 263 291.469 263 C 290.076 263, 288.710 263.593, 288.432 264.318 M 383.945 265.518 C 381.559 266.771, 381.244 267.840, 379.187 281.680 C 376.359 300.706, 376.361 301.328, 379.250 300.455 C 380.488 300.081, 381.814 299.488, 382.198 299.138 C 382.941 298.459, 387.416 265.079, 386.840 264.511 C 386.653 264.327, 385.350 264.780, 383.945 265.518 M 165.013 269.633 C 165.035 272.907, 169.797 300.131, 170.465 300.798 C 170.818 301.151, 173.108 300.378, 175.553 299.081 C 180.761 296.318, 180.719 296.623, 177.980 281.556 C 175.984 270.571, 175.201 269.055, 171.500 269.002 C 170.400 268.986, 168.488 268.701, 167.250 268.370 C 165.503 267.901, 165.003 268.184, 165.013 269.633 M 151.634 270.278 C 149.974 271.492, 149.996 272.247, 152.052 285.147 C 153.244 292.621, 154.544 299.262, 154.940 299.904 C 155.337 300.546, 157.376 301.349, 159.471 301.689 L 163.280 302.307 162.695 298.904 C 162.373 297.032, 161.105 289.538, 159.877 282.250 C 157.829 270.093, 157.469 269, 155.514 269 C 154.341 269, 152.596 269.575, 151.634 270.278 M 369.709 273.316 C 368.654 276.066, 363.804 307.137, 364.346 307.679 C 365.813 309.146, 368.002 306.826, 368.023 303.781 C 368.036 301.977, 368.925 294.650, 370 287.500 C 371.075 280.350, 371.964 273.938, 371.977 273.250 C 372.007 271.596, 370.351 271.644, 369.709 273.316 M 184.408 276.250 C 184.682 278.038, 185.168 281.300, 185.487 283.500 C 186.619 291.293, 187.175 293, 188.579 293 C 190.270 293, 190.339 291.326, 188.973 283.434 C 187.307 273.800, 187.035 273, 185.436 273 C 184.278 273, 184.030 273.785, 184.408 276.250 M 194 276.451 C 194 280.924, 196.148 289, 197.333 288.985 C 200.590 288.942, 201.173 287.385, 200.100 281.585 C 198.830 274.714, 198.439 274, 195.941 274 C 194.548 274, 194 274.692, 194 276.451 M 140.235 275.833 C 139.232 276.470, 139.386 278.656, 140.981 286.406 C 143.218 297.280, 143.502 298, 145.559 298 C 147.365 298, 147.357 297.144, 145.450 286.860 C 143.111 274.247, 143.024 274.063, 140.235 275.833 M 361.563 277.250 C 361.040 278.996, 357.989 306.961, 357.995 309.950 C 357.999 311.720, 358.303 312.097, 359.091 311.309 C 360.099 310.301, 363.881 285.028, 363.964 278.750 C 364 275.991, 362.265 274.907, 361.563 277.250 M 207 280.500 C 207 282.989, 207.402 284.033, 208.250 283.750 C 208.938 283.521, 209.500 282.058, 209.500 280.500 C 209.500 278.942, 208.938 277.479, 208.250 277.250 C 207.402 276.967, 207 278.011, 207 280.500 M 130.377 279.620 C 129.569 279.952, 129.710 282.245, 130.877 287.777 C 132.146 293.793, 132.914 295.552, 134.396 295.838 C 135.663 296.082, 136.121 295.755, 135.778 294.851 C 135.495 294.108, 134.682 290.238, 133.971 286.250 C 133.261 282.262, 132.414 279.036, 132.090 279.079 C 131.765 279.122, 130.994 279.366, 130.377 279.620 M 350.585 282.862 C 349.892 283.983, 347.021 308.382, 347.009 313.250 C 347.003 315.921, 347.432 317, 348.500 317 C 349.325 317, 350 316.435, 350 315.744 C 350 313.847, 352.875 288.968, 353.524 285.250 C 353.953 282.787, 353.731 282, 352.604 282 C 351.787 282, 350.878 282.388, 350.585 282.862 M 120 285.351 C 120 289.421, 122.079 294, 123.928 294 C 125.481 294, 125.557 293.433, 124.662 288.500 C 123.882 284.197, 123.267 283, 121.833 283 C 120.576 283, 120 283.738, 120 285.351 M 229.635 295 C 229.926 300.775, 230.526 305.877, 230.969 306.337 C 231.804 307.205, 231.562 303.446, 230.014 291.500 C 229.207 285.273, 229.165 285.660, 229.635 295 M 109.412 287.369 C 108.611 289.457, 109.722 291, 112.027 291 C 113.573 291, 113.781 290.582, 113.122 288.801 C 112.111 286.068, 110.195 285.329, 109.412 287.369 M 237.455 296.112 C 238.182 305.406, 240.092 312.015, 240.746 307.500 C 241.433 302.758, 239.472 287.652, 238.111 287.201 C 236.957 286.819, 236.846 288.330, 237.455 296.112 M 340.470 288.049 C 339.748 289.217, 337.053 314.376, 337.021 320.250 C 337.007 322.747, 337.452 324, 338.354 324 C 339.344 324, 340.009 320.986, 340.835 312.750 C 343.206 289.116, 343.318 287, 342.203 287 C 341.606 287, 340.826 287.472, 340.470 288.049 M 247 298.020 C 247 302.482, 247.441 306.955, 247.979 307.961 C 248.839 309.567, 253.759 312, 256.149 312 C 257.560 312, 257.184 293.391, 255.750 292.253 C 255.063 291.707, 252.813 290.957, 250.750 290.585 L 247 289.909 247 298.020 M 328.390 293.039 C 326.779 293.645, 326.142 294.975, 325.695 298.666 C 323.585 316.117, 322.768 325.954, 323.311 327.368 C 323.939 329.004, 328 329.714, 328 328.187 C 328 327.740, 328.699 320.043, 329.553 311.082 C 330.407 302.121, 330.970 294.217, 330.803 293.518 C 330.599 292.661, 329.812 292.505, 328.390 293.039 M 208.874 293.459 C 208.097 294.236, 210.272 309, 211.163 309 C 212.155 309, 212.218 305.456, 211.352 298.250 C 210.777 293.459, 210.128 292.205, 208.874 293.459 M 263.213 303.658 C 263.461 312.160, 263.740 313.523, 265.287 313.819 C 266.921 314.132, 267.050 313.316, 266.787 304.342 C 266.539 295.840, 266.260 294.477, 264.713 294.181 C 263.079 293.868, 262.950 294.684, 263.213 303.658 M 273 305.893 C 273 313.992, 273.287 315.896, 274.582 316.393 C 278.720 317.981, 279 317.392, 279 307.117 C 279 297.713, 278.891 297.204, 276.750 296.630 C 275.512 296.299, 274.163 296.021, 273.750 296.014 C 273.337 296.006, 273 300.452, 273 305.893 M 110 298.390 C 110 300.071, 113.657 318.012, 115.067 323.250 C 115.799 325.966, 116.618 327, 118.039 327 C 119.244 327, 119.996 326.326, 119.988 325.250 C 119.959 320.926, 114.862 298.531, 113.745 297.821 C 111.803 296.588, 110 296.862, 110 298.390 M 198.527 297.957 C 197.316 299.915, 199.235 312.056, 200.892 312.926 C 201.777 313.391, 209.925 315.653, 219 317.953 C 236.315 322.341, 273.336 332.424, 276.280 333.554 C 277.430 333.995, 278 333.723, 278 332.731 C 278 331.721, 275.528 330.605, 270.250 329.233 C 265.988 328.125, 249.900 323.989, 234.500 320.042 C 219.100 316.095, 206.189 312.558, 205.808 312.183 C 205.234 311.617, 203.033 300.272, 203.008 297.750 C 202.997 296.657, 199.223 296.831, 198.527 297.957 M 123 300.316 C 123 300.490, 123.479 303.303, 124.063 306.566 C 126.376 319.468, 127.351 321.336, 130.670 319.225 C 132.070 318.334, 127.700 302.064, 125.723 300.807 C 124.473 300.014, 123 299.748, 123 300.316 M 188.632 302.280 C 187.198 303.329, 187.070 304.055, 187.926 306.305 C 188.872 308.793, 191.495 310.838, 192.479 309.854 C 193.117 309.217, 191.799 301, 191.059 301 C 190.687 301, 189.595 301.576, 188.632 302.280 M 288.212 310.239 C 288.457 318.107, 288.760 319.527, 290.250 319.812 C 291.818 320.112, 292 319.152, 292 310.573 C 292 301.608, 291.871 301, 289.962 301 C 288.039 301, 287.941 301.516, 288.212 310.239 M 299.200 302.200 C 298.439 302.961, 298 306.796, 298 312.681 C 298 321.792, 298.047 321.974, 300.547 322.601 C 301.947 322.953, 303.351 322.982, 303.666 322.667 C 304.546 321.788, 306.256 304.110, 305.622 302.457 C 304.946 300.697, 300.867 300.533, 299.200 302.200 M 135.470 308.546 C 136.907 314.729, 137.574 315.826, 139.021 314.379 C 140.394 313.006, 137.343 303, 135.551 303 C 134.400 303, 134.387 303.888, 135.470 308.546 M 390.563 305.250 C 389.890 308.443, 385.997 339.144, 385.999 341.250 C 385.999 342.212, 386.584 343, 387.298 343 C 388.228 343, 389.250 337.956, 390.896 325.250 C 392.161 315.488, 393.426 306.488, 393.706 305.250 C 394.070 303.646, 393.760 303, 392.627 303 C 391.753 303, 390.825 304.012, 390.563 305.250 M 144.574 305.881 C 144.304 306.317, 144.792 307.685, 145.657 308.921 C 147.365 311.359, 149.498 310.461, 148.455 307.745 C 147.748 305.900, 145.291 304.721, 144.574 305.881 M 178.570 306.886 C 178.269 307.374, 178.917 308.007, 180.011 308.293 C 181.300 308.630, 182 308.318, 182 307.406 C 182 305.861, 179.443 305.474, 178.570 306.886 M 171.329 313.094 C 171.683 314.417, 171.986 316.175, 172.002 317 C 172.075 320.786, 173.558 321.289, 178.373 319.159 C 180.918 318.034, 183 316.648, 183 316.079 C 183 314.447, 178.563 311.966, 174.448 311.298 C 170.854 310.715, 170.714 310.795, 171.329 313.094 M 376.674 312.250 C 375.415 313.172, 374.540 316.691, 373.342 325.661 C 372.449 332.350, 371.992 338.537, 372.328 339.411 C 372.663 340.285, 373.997 341, 375.292 341 C 377.555 341, 377.712 340.501, 379.323 328.198 C 380.245 321.157, 381 314.407, 381 313.198 C 381 310.745, 379.254 310.362, 376.674 312.250 M 159.750 313.572 C 156.664 315.246, 156.558 315.841, 158.083 322.951 C 159.228 328.292, 160.099 328.823, 164.453 326.839 C 167.321 325.533, 167.495 324.297, 165.828 317.076 C 164.568 311.618, 163.978 311.278, 159.750 313.572 M 200.667 317.667 C 200.300 318.033, 200 319.833, 200 321.667 C 200 325.843, 202.583 326.164, 206.694 322.498 C 209.431 320.057, 209.452 319.959, 207.559 318.498 C 205.550 316.948, 201.834 316.500, 200.667 317.667 M 147.162 320.064 C 145.046 320.912, 144.892 321.404, 145.537 325.250 C 146.773 332.616, 147.634 334, 150.975 334 C 152.639 334, 154 333.530, 154 332.956 C 154 330.752, 150.726 319.003, 150.128 319.063 C 149.783 319.098, 148.448 319.548, 147.162 320.064 M 191.734 320.846 C 188.301 322.354, 188.023 322.765, 188.589 325.500 C 189.481 329.803, 190.460 330.466, 193.850 329.062 C 196.401 328.005, 196.860 327.223, 197.163 323.418 C 197.551 318.538, 197.281 318.410, 191.734 320.846 M 361.500 321.600 C 360.400 322.445, 358.880 323.494, 358.123 323.930 C 356.250 325.007, 354.715 334.951, 356.153 336.685 C 357.411 338.200, 362.598 338.460, 363.468 337.051 C 364.500 335.383, 365.340 319.998, 364.398 320.032 C 363.904 320.049, 362.600 320.755, 361.500 321.600 M 179.512 327.015 C 176.218 328.619, 173.024 330.614, 172.413 331.450 C 171.802 332.285, 171.040 332.706, 170.719 332.385 C 169.887 331.553, 159.957 337.121, 160.553 338.085 C 160.824 338.525, 163.041 339.184, 165.479 339.549 C 169.345 340.129, 170.991 339.699, 178.348 336.186 C 182.988 333.971, 187.091 331.662, 187.466 331.055 C 188.251 329.785, 187.176 323.975, 186.171 324.050 C 185.802 324.077, 182.805 325.412, 179.512 327.015 M 132.750 326.162 C 131.238 326.715, 130 327.787, 130 328.545 C 130 329.888, 137.705 332.628, 138.696 331.637 C 139.616 330.718, 137.850 324.999, 136.671 325.079 C 136.027 325.122, 134.262 325.610, 132.750 326.162 M 342.701 331.632 C 341.334 332.999, 342.028 334.135, 344.040 333.820 C 345.161 333.644, 346.085 333.050, 346.092 332.500 C 346.109 331.283, 343.674 330.660, 342.701 331.632 M 286 334.839 C 286 335.834, 302.051 340.282, 302.831 339.503 C 303.899 338.434, 301.362 337.258, 294.500 335.643 C 286.449 333.747, 286 333.705, 286 334.839 M 118.600 336.303 C 117.039 337.444, 116.958 338.131, 117.947 341.803 C 118.657 344.440, 119.653 346, 120.626 346 C 123.027 346, 135.250 338.843, 134.323 337.980 C 133.507 337.220, 124.060 335, 121.642 335 C 120.949 335, 119.580 335.587, 118.600 336.303 M 197.018 341.056 C 190.571 344.127, 188.892 345.320, 190.018 346.033 C 192.656 347.700, 198.616 347.060, 204.443 344.483 C 209.188 342.384, 210.082 341.594, 209.817 339.733 C 209.330 336.301, 206.354 336.609, 197.018 341.056 M 247.359 340.923 C 243.392 343.342, 242.365 344.983, 244.122 346.096 C 246.563 347.643, 252.383 346.971, 256.868 344.625 L 261.235 342.339 257.716 340.670 C 253.191 338.522, 251.217 338.570, 247.359 340.923 M 136.397 347.866 C 128.641 351.633, 121.982 355.220, 121.601 355.837 C 120.580 357.489, 122.791 361, 124.852 361 C 126.363 361, 150.312 350.352, 159.353 345.661 C 162.065 344.254, 162.108 344.128, 160.228 343.122 C 159.140 342.540, 156.507 341.828, 154.375 341.541 C 151.060 341.093, 148.463 342.007, 136.397 347.866 M 263.250 348.259 C 260.913 349.433, 259 350.662, 259 350.990 C 259 351.847, 267.512 354, 270.904 354 C 272.485 354, 274.841 353.100, 276.139 352 L 278.500 350 276.139 348 C 273.128 345.449, 268.665 345.539, 263.250 348.259 M 173.814 352.356 C 170.136 354.107, 166.849 355.817, 166.510 356.157 C 166.170 356.497, 168.153 357.317, 170.916 357.980 C 175.707 359.129, 176.264 359.035, 182.970 355.944 C 186.836 354.162, 190 352.393, 190 352.012 C 190 350.935, 185.151 348.990, 182.703 349.086 C 181.491 349.133, 177.491 350.605, 173.814 352.356 M 316.750 351.392 C 314.769 352.896, 314.388 356, 316.184 356 C 316.836 356, 319.352 355.040, 321.777 353.866 C 324.966 352.322, 325.814 351.497, 324.842 350.881 C 322.852 349.620, 318.743 349.879, 316.750 351.392 M 296.187 357.173 C 296.584 361.193, 297.936 361.625, 301.457 358.855 C 304.094 356.781, 304.149 356.582, 302.435 355.329 C 301.435 354.598, 299.550 354, 298.246 354 C 296.182 354, 295.914 354.413, 296.187 357.173 M 331.273 355.820 C 329.498 356.744, 328.035 357.816, 328.023 358.203 C 327.997 359.002, 334.583 360.986, 337.290 360.994 C 338.274 360.997, 340.970 360.036, 343.280 358.857 L 347.480 356.715 342.990 355.373 C 337.279 353.665, 335.265 353.742, 331.273 355.820 M 246.250 356.989 C 241.237 360.046, 242.504 364.052, 248.450 363.946 C 252.215 363.878, 260.201 360.901, 260.709 359.375 C 261.103 358.190, 254.181 354.997, 251.230 355.004 C 250.278 355.006, 248.037 355.899, 246.250 356.989 M 286.122 355.904 C 284.334 357.036, 285.563 359, 288.059 359 C 289.333 359, 290 358.313, 290 357 C 290 354.891, 288.424 354.445, 286.122 355.904 M 197.750 359.509 C 195.137 360.900, 193 362.421, 193 362.889 C 193 364.326, 201.725 366.275, 205.210 365.616 C 207.020 365.274, 210.027 364.063, 211.892 362.925 C 214.973 361.046, 215.141 360.712, 213.717 359.288 C 210.956 356.527, 203.147 356.635, 197.750 359.509 M 372.598 358.736 C 371.281 360.052, 372.117 362, 374 362 C 375.100 362, 376 361.373, 376 360.607 C 376 359.099, 373.571 357.762, 372.598 358.736 M 151.134 362.569 C 147.210 364.532, 144 366.482, 144 366.901 C 144 367.321, 145.641 368.168, 147.646 368.783 C 150.825 369.759, 152.075 369.574, 157.396 367.343 C 167.827 362.968, 167.690 363.094, 164.372 360.906 C 160.456 358.325, 159.338 358.465, 151.134 362.569 M 350 362.130 L 345.500 364.216 352 366.073 C 355.575 367.094, 359.647 367.946, 361.050 367.965 C 363.483 367.998, 366 366.426, 366 364.872 C 366 364.315, 355.757 359.914, 354.712 360.022 C 354.596 360.034, 352.475 360.983, 350 362.130 M 263.250 365.768 C 260.363 367.223, 258 368.677, 258 368.999 C 258 369.768, 266.395 372.001, 269.264 371.996 C 272.248 371.991, 278 368.405, 278 366.550 C 278 364.621, 274.863 362.984, 271.316 363.061 C 269.767 363.094, 266.137 364.312, 263.250 365.768 M 312.250 365.768 C 309.363 367.223, 307 368.717, 307 369.088 C 307 369.896, 314.988 372, 318.057 372 C 320.389 372, 328 368.104, 328 366.910 C 328 366.251, 319.406 362.919, 318.072 363.061 C 317.757 363.094, 315.137 364.312, 312.250 365.768 M 175.238 370.774 C 172.343 372.232, 170.120 373.861, 170.298 374.394 C 170.724 375.671, 176.786 377.828, 180.221 377.924 C 181.718 377.966, 185.543 376.823, 188.721 375.385 L 194.500 372.771 189.500 370.398 C 183.262 367.438, 181.779 367.477, 175.238 370.774 M 287 374.917 C 287 380.297, 288.883 382.108, 289.167 377 C 289.258 375.350, 289.371 373.250, 289.417 372.333 C 289.462 371.417, 288.938 370.479, 288.250 370.250 C 287.359 369.953, 287 371.294, 287 374.917 M 332.250 372.744 C 329.363 374.212, 327.005 375.658, 327.010 375.957 C 327.016 376.256, 330.267 377.488, 334.235 378.695 L 341.449 380.890 346.724 377.872 C 349.626 376.211, 352 374.638, 352 374.376 C 352 373.513, 345.582 371.236, 341.500 370.649 C 338.375 370.199, 336.351 370.658, 332.250 372.744 M 242.260 375.257 C 239.396 377.041, 237.041 378.784, 237.027 379.131 C 236.993 379.927, 245.115 382.004, 248.193 381.987 C 249.462 381.980, 252.750 380.906, 255.500 379.601 L 260.500 377.228 256 375.221 C 248.312 371.792, 247.821 371.793, 242.260 375.257 M 297 377.500 C 297 381.605, 297.214 382, 299.443 382 C 301.583 382, 309 378.447, 309 377.422 C 309 376.577, 300.942 373, 299.040 373 C 297.289 373, 297 373.637, 297 377.500 M 277.500 376 C 277.840 376.550, 278.541 377, 279.059 377 C 279.577 377, 280 376.550, 280 376 C 280 375.450, 279.298 375, 278.441 375 C 277.584 375, 277.160 375.450, 277.500 376 M 196.500 378.652 L 191.500 381.324 195 382.780 C 201.047 385.294, 205.081 385.279, 210.489 382.720 L 215.478 380.359 212.724 378.555 C 208.137 375.549, 202.242 375.585, 196.500 378.652 M 262.750 383.154 C 260.137 384.307, 258 385.600, 258 386.027 C 258 386.455, 261.115 387.751, 264.922 388.908 C 272.228 391.127, 275.251 390.812, 277.959 387.550 C 279.147 386.118, 279.059 385.615, 277.314 383.870 C 274.383 380.938, 268.435 380.646, 262.750 383.154 M 312.278 383.798 C 309.405 385.284, 307.043 386.758, 307.028 387.074 C 307.012 387.390, 310.403 388.715, 314.562 390.019 L 322.123 392.391 326.562 389.966 C 329.003 388.633, 331 387.002, 331 386.343 C 331 385.184, 321.177 380.951, 318.712 381.048 C 318.046 381.074, 315.150 382.311, 312.278 383.798 M 219.500 385.711 L 214.500 388.330 219.500 390.603 C 225.848 393.490, 226.454 393.491, 233.523 390.615 L 239.386 388.229 234.226 385.615 C 227.854 382.385, 225.826 382.399, 219.500 385.711 M 287.015 396.667 C 287.032 405.019, 288.352 409.430, 289.485 404.917 C 290.515 400.811, 289.640 389.705, 288.250 389.246 C 287.320 388.939, 287.004 390.841, 287.015 396.667 M 242.500 393.484 C 238.249 395.455, 237.800 395.914, 239.500 396.549 C 240.600 396.959, 243.017 397.904, 244.872 398.648 C 249.501 400.504, 252.034 400.352, 257.667 397.878 L 262.500 395.755 257.500 393.390 C 251.376 390.494, 248.917 390.509, 242.500 393.484 M 297.667 391.667 C 297.300 392.033, 297 395.408, 297 399.167 C 297 405.394, 297.182 406, 299.055 406 C 300.809 406, 313 398.619, 313 397.557 C 313 397.095, 300.036 391, 299.054 391 C 298.658 391, 298.033 391.300, 297.667 391.667 M 267 401.143 L 262.500 403.243 267.936 405.683 C 274.273 408.529, 277.675 408.142, 278.596 404.472 C 279.973 398.985, 274.805 397.502, 267 401.143" stroke="none" fill="black" fill-rule="evenodd"/>
</svg>